<?xml version="1.0"?>
<svg xmlns="http://www.w3.org/2000/svg" viewBox="0 0 65.96 65.96">
  <g fill="#fff">
    <path d="M47.18,34.54c.16-.45.25-.98.25-1.6v-3.11c0-1-.44-1.49-1.32-1.49h-1.3v6.87h1.27c.57,0,.94-.22,1.11-.67Z"></path>
    <path d="M45.95,40.04h-1.14v8.96c.26.02.46.04.62.04,1.61,0,2.41-.76,2.41-2.29v-3.87c0-.88-.13-1.57-.4-2.08s-.76-.76-1.49-.76Z"></path>
    <path d="M32.98,0C14.76,0,0,14.76,0,32.98s14.76,32.98,32.98,32.98,32.98-14.76,32.98-32.98S51.19,0,32.98,0ZM53.38,49.75c-.38,1.5-1.05,2.67-2.04,3.5s-2.38,1.25-4.2,1.25h-8.38v-20.07h-6.15v14.03h-6.22v-20.07h-6.14v14.03h-6.22V11.46h12.38v6.03h-6.15v4.92h6.14v-4.91h12.38v6.03h-6.15v4.92h6.15v-4.9h8.38c2.25,0,3.89.55,4.91,1.64s1.54,2.9,1.54,5.42v1.35c0,1.45-.26,2.63-.78,3.53s-1.32,1.49-2.38,1.78c1.39.35,2.33,1.17,2.8,2.47s.71,2.87.71,4.74c0,2-.19,3.76-.56,5.26Z"></path>
  </g>
</svg>