<?xml version="1.0"?>
<svg id="Layer_2" xmlns="http://www.w3.org/2000/svg" viewBox="0 0 73.11 64.26">
  <defs>
    
  </defs>
  <g id="Layer_1-2" data-name="Layer_1">
    <g>
      <path class="cls-1" d="M0,64.26v-19.18h5.2c1.4,0,2.41.34,3.05,1.02.64.68.95,1.8.95,3.36v.84c0,.9-.16,1.63-.49,2.19-.32.56-.82.93-1.48,1.1.86.22,1.44.73,1.74,1.53.29.8.44,1.78.44,2.94,0,1.24-.12,2.33-.35,3.26-.23.93-.65,1.65-1.26,2.17-.61.52-1.48.77-2.61.77H0ZM3.75,52.3h.78c.36,0,.58-.14.69-.41.1-.28.15-.61.15-.99v-1.93c0-.62-.27-.93-.82-.93h-.81v4.26ZM4.13,60.88c1,0,1.49-.47,1.49-1.42v-2.4c0-.55-.08-.98-.25-1.29-.16-.32-.47-.47-.92-.47h-.71v5.56c.16.01.29.02.38.02Z"></path>
      <path class="cls-1" d="M10.68,64.26v-19.18h5.89c.98,0,1.72.22,2.22.67.5.45.84,1.07,1.01,1.87.17.8.26,1.75.26,2.83s-.13,1.88-.4,2.51c-.27.63-.76,1.06-1.5,1.3.6.12,1.03.42,1.27.9.24.48.37,1.09.37,1.85v7.26h-3.78v-7.51c0-.56-.11-.91-.34-1.04-.23-.13-.6-.2-1.11-.2v8.75h-3.88ZM14.58,52.18h.93c.53,0,.8-.58.8-1.73,0-.75-.06-1.24-.17-1.47-.12-.23-.33-.35-.65-.35h-.89v3.55Z"></path>
      <path class="cls-1" d="M20.8,64.26l1.85-19.18h6.51l1.82,19.18h-3.63l-.27-3.1h-2.31l-.24,3.1h-3.73ZM25.04,58.1h1.74l-.84-9.76h-.17l-.73,9.76Z"></path>
      <path class="cls-1" d="M32.15,64.26v-19.18h3.95l1.77,9.19v-9.19h3.71v19.18h-3.75l-1.92-9.59v9.59h-3.75Z"></path>
      <g>
        <path class="cls-1" d="M45.35,0v19.11h-3.51V5.28l-2.2,13.82h-3.44l-2.33-13.82v13.82h-3.47V0h-3.85c.54.1.98.3,1.32.59.5.45.84,1.07,1.01,1.87.17.8.26,1.75.26,2.83s-.13,1.88-.4,2.51c-.27.63-.76,1.06-1.5,1.3.6.12,1.03.42,1.27.9.24.48.37,1.09.37,1.85v7.26h-3.78v-7.51c0-.56-.11-.91-.34-1.04-.23-.13-.6-.2-1.11-.2v8.75h-3.88V0h-4.44c.68.21,1.24.55,1.68,1.02.8.85,1.2,2.1,1.2,3.74v9.11c0,1.75-.41,3.09-1.22,4.02-.81.93-1.98,1.39-3.52,1.39s-2.71-.46-3.52-1.39c-.81-.93-1.22-2.27-1.22-4.02V4.76c0-1.64.4-2.89,1.2-3.74.45-.47,1.01-.81,1.68-1.02h-3.97v3.66h-3.81v3.05h3.62v3.69h-3.62v8.7H.09v3.39h7.59v3.74h-3.81v3.05h3.62v3.69h-3.62v8.6h7.8c-.68-.23-1.24-.6-1.69-1.12-.81-.93-1.22-2.27-1.22-4.02v-9.11c0-1.64.4-2.89,1.2-3.74.8-.85,1.98-1.28,3.53-1.28s2.72.43,3.53,1.28c.8.85,1.2,2.1,1.2,3.74v9.11c0,1.75-.41,3.09-1.22,4.02-.45.52-1.02.89-1.69,1.12h4.46v-19.09h3.84v15.91h3.95v3.17h1.09v-19.09h3.84v15.91h3.95v3.17h3.85c-.68-.23-1.24-.6-1.69-1.12-.81-.93-1.22-2.27-1.22-4.02v-9.11c0-1.64.4-2.89,1.2-3.74.8-.85,1.98-1.28,3.53-1.28s2.72.43,3.53,1.28c.8.85,1.2,2.1,1.2,3.74v9.11c0,1.75-.41,3.09-1.22,4.02-.45.52-1.02.89-1.69,1.12h5.95l-2.05-19.09h3.75l1.06,12.11,1.08-12.11h3.58l1.02,12.11,1.02-12.11h3.79l-2.08,19.09h5.7c-.71-.22-1.28-.56-1.7-1.04-.77-.87-1.16-2.26-1.16-4.16v-1.87h3.79v2.4c0,.44.07.79.2,1.04.13.25.37.38.7.38s.59-.1.72-.31c.13-.2.2-.54.2-1,0-.59-.06-1.08-.17-1.48-.12-.4-.32-.77-.6-1.13-.29-.36-.68-.78-1.19-1.26l-1.72-1.63c-1.29-1.21-1.93-2.6-1.93-4.16s.38-2.88,1.14-3.74c.76-.86,1.86-1.29,3.3-1.29,1.76,0,3.01.47,3.74,1.41.6.76.95,1.84,1.07,3.25V0h-27.76Z"></path>
        <polygon class="cls-1" points="54.55 41.58 56.41 41.58 55.46 32.45 54.55 41.58"></polygon>
        <path class="cls-1" d="M69.25,26.68c0-.26-.07-.46-.22-.61-.15-.15-.35-.22-.6-.22-.31,0-.53.09-.67.26-.14.17-.21.39-.21.66s.07.56.22.87c.15.31.43.67.86,1.08l2.21,2.13c.44.42.85.87,1.22,1.34.37.47.67,1.01.89,1.63.07.18.12.38.17.58v-6.4h-3.86v-1.32Z"></path>
        <path class="cls-1" d="M42.14,25.85c-.64,0-.96.48-.96,1.45v9.35c0,.6.07,1.02.22,1.28.15.26.39.39.72.39.58,0,.87-.56.87-1.69v-9.36c0-.94-.28-1.42-.85-1.42Z"></path>
        <polygon class="cls-1" points="39.45 0 36.25 0 37.85 11.62 39.45 0"></polygon>
        <path class="cls-1" d="M70.63,41.58h2.48v-3.47c-.16.87-.44,1.61-.83,2.21-.39.59-.94,1.01-1.65,1.26Z"></path>
        <path class="cls-1" d="M25.39,5.3c0-.75-.06-1.24-.17-1.47-.12-.23-.33-.35-.65-.35h-.89v3.55h.93c.53,0,.8-.58.8-1.73Z"></path>
        <path class="cls-1" d="M13.54,25.85c-.64,0-.96.48-.96,1.45v9.35c0,.6.07,1.02.22,1.28.15.26.39.39.72.39.58,0,.87-.56.87-1.69v-9.36c0-.94-.28-1.42-.85-1.42Z"></path>
        <path class="cls-1" d="M13.52,15.75c.58,0,.87-.56.87-1.69V4.7c0-.94-.28-1.42-.85-1.42-.64,0-.96.48-.96,1.45v9.35c0,.6.07,1.02.22,1.28.15.26.39.39.72.39Z"></path>
        <path class="cls-1" d="M48.55,45.07h-5.28v19.18h5.14c1.59,0,2.7-.49,3.34-1.48.64-.99.95-2.39.95-4.21v-8.98c0-1.48-.35-2.6-1.05-3.36-.7-.77-1.74-1.15-3.12-1.15ZM48.85,59.84c0,.68-.35,1.02-1.06,1.02h-.66v-12.44h.43c.52,0,.87.09,1.04.28.17.19.26.6.26,1.24v9.9Z"></path>
      </g>
    </g>
  </g>
</svg>